<svg style="position: absolute; width: 0; height: 0; overflow: hidden;" version="1.1" xmlns="http://www.w3.org/2000/svg" xmlns:xlink="http://www.w3.org/1999/xlink">
<defs>
<symbol id="svg-down" viewBox="0 0 32 32">
<title>down</title>
<path class="path1" d="M29.693 7.879c0.502-0.495 1.309-0.495 1.807 0s0.5 1.294 0 1.789l-14.597 14.453c-0.498 0.495-1.305 0.495-1.807 0l-14.597-14.453c-0.498-0.495-0.498-1.294 0-1.789 0.5-0.495 1.309-0.495 1.807 0l13.694 13.181 13.693-13.181z"></path>
</symbol>
<symbol id="svg-search" viewBox="0 0 32 32">
<title>search</title>
<path class="path1" d="M30.684 26.947l-7.501-6.379c-0.775-0.698-1.605-1.018-2.274-0.987 1.771-2.074 2.84-4.765 2.84-7.705 0-6.558-5.316-11.875-11.875-11.875s-11.875 5.316-11.875 11.875 5.316 11.875 11.875 11.875c2.941 0 5.631-1.070 7.705-2.84-0.031 0.67 0.289 1.499 0.987 2.274l6.379 7.501c1.092 1.214 2.877 1.316 3.965 0.227s0.986-2.873-0.227-3.965zM11.875 19.791c-4.372 0-7.916-3.544-7.916-7.916s3.544-7.916 7.916-7.916 7.916 3.544 7.916 7.916-3.544 7.916-7.916 7.916z"></path>
</symbol>
<symbol id="svg-coaching" viewBox="0 0 43 32">
<title>coaching</title>
<path class="path1" d="M12.657 16.498c-2.398 0.001-4.339 1.943-4.34 4.34 0.001 2.397 1.943 4.34 4.34 4.34s4.34-1.947 4.34-4.341c-0-2.397-1.943-4.34-4.34-4.34zM12.657 23.318c-1.37 0-2.48-1.11-2.48-2.48s1.111-2.48 2.48-2.48 2.482 1.11 2.48 2.48c0.001 1.37-1.111 2.48-2.48 2.48z"></path>
<path class="path2" d="M39.988 9.682c-0.016-0.001-0.030-0.005-0.047-0.005h-27.284c-6.162 0-11.164 4.999-11.161 11.162-0.001 6.164 4.996 11.16 11.161 11.16 5.442 0 9.973-3.898 10.958-9.054l16.321-2.107c0.001-0.001 0.002-0.001 0.004 0 0.685 0 1.24-0.555 1.24-1.24 0-0.001 0-0.002 0-0.003v-8.675c0-0.001 0-0.002 0-0.003 0-0.668-0.529-1.209-1.192-1.235zM12.657 29.521c-4.795 0-8.677-3.888-8.681-8.681 0.004-4.796 3.886-8.68 8.681-8.681l7.441-0.001c0.001 1.028 0.833 1.86 1.86 1.86s1.86-0.832 1.86-1.86l14.882 0.001v6.359l-16.18 2.088c-0.686 0-1.24 0.556-1.24 1.24-0.5 4.314-4.168 7.673-8.623 7.675z"></path>
<path class="path3" d="M21.338 5.225c-0.685 0-1.24-0.555-1.24-1.24v-2.745c0-0.685 0.555-1.24 1.24-1.24s1.24 0.555 1.24 1.24v2.745c0 0.685-0.555 1.24-1.24 1.24z"></path>
<path class="path4" d="M17.581 7.536c-0.317 0-0.635-0.121-0.877-0.363l-1.941-1.941c-0.484-0.484-0.484-1.27 0-1.754s1.269-0.484 1.754-0l1.941 1.941c0.484 0.484 0.484 1.27 0 1.754-0.242 0.242-0.559 0.363-0.877 0.363z"></path>
<path class="path5" d="M25.095 7.536c-0.317 0-0.635-0.121-0.877-0.363-0.484-0.484-0.484-1.27 0-1.754l1.941-1.941c0.484-0.484 1.269-0.484 1.754 0s0.484 1.27 0 1.754l-1.941 1.941c-0.242 0.242-0.56 0.363-0.877 0.363z"></path>
</symbol>
<symbol id="svg-entrenador" viewBox="0 0 43 32">
<title>entrenador</title>
<path class="path1" d="M21.336 15.5c-2.761 0-5.001 2.239-5 5.001-0.001 2.762 2.237 5 5 5 2.761 0 5.001-2.238 5-4.999 0.001-2.762-2.239-5.001-5-5.001zM21.336 23.5c-1.657 0-2.999-1.343-3-3 0.001-1.657 1.343-3 3-3s3 1.343 3 3c0 1.655-1.343 3-3 3.001z"></path>
<path class="path2" d="M28.494 11.502l1.342-8.502c0-1.65-1.35-3-3-3h-11c-1.649 0-3 1.35-3 3l1.343 8.502c-2.645 2.107-4.344 5.354-4.343 8.999-0.001 6.353 5.147 11.499 11.5 11.499 6.351 0 11.502-5.146 11.5-11.498 0.001-3.645-1.696-6.892-4.342-9zM14.836 3c0-0.55 0.45-1 1-1h11c0.55 0 1 0.45 1 1l-1.353 7.217c-1.55-0.777-3.297-1.217-5.147-1.217s-3.598 0.44-5.147 1.217l-1.354-7.217zM21.336 30.001c-5.248 0-9.498-4.253-9.5-9.501 0.002-5.249 4.252-9.499 9.5-9.501s9.501 4.252 9.501 9.499c0 5.239-4.252 9.5-9.501 9.501z"></path>
</symbol>
<symbol id="svg-eventos" viewBox="0 0 43 32">
<title>eventos</title>
<path class="path1" d="M16.836 4.5c0 0.828-0.672 1.5-1.5 1.5s-1.5-0.672-1.5-1.5c0-0.828 0.672-1.5 1.5-1.5s1.5 0.672 1.5 1.5z"></path>
<path class="path2" d="M28.836 4.5c0 0.828-0.672 1.5-1.5 1.5s-1.5-0.672-1.5-1.5c0-0.828 0.672-1.5 1.5-1.5s1.5 0.672 1.5 1.5z"></path>
<path class="path3" d="M25.805 21.267c1.559-1.319 3.031-2.566 3.031-4.124 0-2.284-1.794-4.143-4-4.143s-4 1.858-4 4.143c0 0.552 0.448 1 1 1s1-0.448 1-1c0-1.181 0.898-2.143 2-2.143s2 0.961 2 2.143c0 0.63-1.288 1.721-2.323 2.597-1.724 1.459-3.677 3.112-3.677 5.26 0 0.552 0.448 1 1 1h6c0.552 0 1-0.448 1-1s-0.448-1-1-1h-4.692c0.526-0.924 1.642-1.871 2.661-2.733z"></path>
<path class="path4" d="M32.336 0h-22c-2.757 0-5 2.243-5 5v22c0 2.757 2.243 5 5 5h22c2.757 0 5-2.243 5-5v-22c0-2.757-2.243-5-5-5zM10.336 2h22c1.654 0 3 1.346 3 3v2h-28v-2c0-1.654 1.346-3 3-3zM32.336 30h-22c-1.654 0-3-1.346-3-3v-18h28v18c0 1.654-1.346 3-3 3z"></path>
<path class="path5" d="M16.836 26c-0.552 0-1-0.448-1-1v-8.585l-1.293 1.293c-0.391 0.391-1.023 0.391-1.414 0s-0.391-1.023 0-1.414l3-3c0.286-0.286 0.716-0.372 1.090-0.217s0.617 0.52 0.617 0.924v11c0 0.552-0.448 1-1 1z"></path>
</symbol>
<symbol id="svg-nutricionista" viewBox="0 0 43 32">
<title>nutricionista</title>
<path class="path1" d="M32.836 0h-23c-0.552 0-1 0.448-1 1s0.448 1 1 1h0.999v3c0 0.003 0.001 0.006 0.001 0.010 0.005 1.649 1.349 2.99 2.999 2.99h6.5v1.047c-5.598 0.507-10 5.225-10 10.953v9c0 1.65 1.35 3 3 3h16c1.65 0 3-1.35 3-3v-9c0-5.728-4.402-10.445-10-10.953v-1.047h6.5c1.655 0 3.001-1.346 3.001-3 0-0.005-0.002-0.010-0.002-0.015v-2.985h1.001c0.552 0 1-0.448 1-1s-0.448-1-1-1zM30.336 20v9c0 0.55-0.45 1-1 1h-16c-0.55 0-1-0.45-1-1v-9c0-4.963 4.037-9 9-9s9 4.037 9 9zM29.836 5.007c-0.004 0.548-0.45 0.993-1 0.993h-15c-0.552 0-1-0.448-1-1l-0.001-0.005v-2.995h17v3c-0 0.002 0 0.005 0 0.007z"></path>
<path class="path2" d="M14.336 20c0 3.86 3.14 7 7 7s7-3.14 7-7-3.14-7-7-7-7 3.14-7 7zM26.336 20c0 2.757-2.243 5-5 5s-5-2.243-5-5 2.243-5 5-5 5 2.243 5 5z"></path>
<path class="path3" d="M20.336 18.5v1.89c-0.305 0.274-0.5 0.668-0.5 1.11 0 0.829 0.672 1.5 1.501 1.5s1.499-0.671 1.499-1.5c0-0.442-0.195-0.836-0.5-1.111v-1.889c0-0.552-0.448-1-1-1s-1 0.448-1 1z"></path>
</symbol>
</defs>
</svg>
