<svg xmlns="http://www.w3.org/2000/svg" viewBox="0 0 800 600" enable-background="new 0 0 800 600"><g fill="#1d1d1b"><path d="m313.75 304.95c-23.826.006-43.11 19.307-43.13 43.13.012 23.819 19.301 43.13 43.13 43.13 23.826-.006 43.13-19.343 43.13-43.13-.001-23.814-19.302-43.13-43.13-43.12m0 67.764c-13.609 0-24.644-11.03-24.644-24.644 0-13.609 11.03-24.644 24.644-24.644s24.656 11.03 24.644 24.644c.012 13.61-11.04 24.644-24.644 24.644"/><path d="m585.31 237.23c-.156-.006-.301-.048-.469-.048h-271.08-.012c-61.22 0-110.92 49.666-110.9 110.91-.012 61.25 49.636 110.88 110.9 110.88 54.08 0 99.09-38.734 108.88-89.96l162.17-20.937c.012-.006.024-.012.036 0 6.811 0 12.322-5.517 12.322-12.322 0-.012 0-.018 0-.03v-86.19c0-.012 0-.018 0-.03.001-6.642-5.257-12.02-11.84-12.274m-271.56 197.11c-47.639 0-86.22-38.627-86.25-86.25.036-47.651 38.614-86.24 86.25-86.25l73.931-.006c.012 10.21 8.279 18.477 18.483 18.477 10.204 0 18.483-8.267 18.483-18.477l147.86.006v63.18l-160.76 20.751c-6.811 0-12.322 5.529-12.322 12.322-4.969 42.868-41.42 76.24-85.67 76.25"/><path d="m400 192.94c-6.805 0-12.322-5.517-12.322-12.322v-27.27c0-6.805 5.517-12.322 12.322-12.322s12.322 5.517 12.322 12.322v27.27c0 6.805-5.517 12.322-12.322 12.322"/><path d="m362.67 215.91c-3.153 0-6.305-1.203-8.712-3.607l-19.289-19.286c-4.813-4.813-4.813-12.614 0-17.427s12.611-4.81 17.424-.003l19.289 19.286c4.813 4.813 4.813 12.614 0 17.427-2.406 2.407-5.559 3.61-8.712 3.61"/><path d="m437.33 215.91c-3.153 0-6.305-1.203-8.712-3.61-4.813-4.813-4.813-12.614 0-17.427l19.289-19.286c4.813-4.807 12.611-4.81 17.424.003s4.813 12.614 0 17.427l-19.289 19.286c-2.407 2.404-5.56 3.607-8.712 3.607"/></g></svg>