<svg xmlns="http://www.w3.org/2000/svg" viewBox="0 0 800 600" enable-background="new 0 0 800 600"><g fill="#231f20"><path d="m400 293.96c-33.369 0-60.45 27.07-60.44 60.44-.012 33.381 27.04 60.43 60.44 60.43 33.369 0 60.45-27.05 60.44-60.42.012-33.382-27.07-60.45-60.44-60.45m0 96.7c-20.03 0-36.25-16.23-36.26-36.26.012-20.03 16.23-36.25 36.26-36.26s36.26 16.23 36.26 36.25c0 20-16.23 36.26-36.26 36.27"/><path d="m486.52 245.64l16.218-102.77c0-19.942-16.313-36.26-36.26-36.26h-132.96c-19.936 0-36.26 16.319-36.26 36.26l16.23 102.77c-31.976 25.473-52.5 64.714-52.49 108.77-.012 76.79 62.21 138.99 139 138.99 76.76 0 139.02-62.2 139-138.98.012-44.06-20.503-83.3-52.48-108.78m-165.09-102.77c0-6.645 5.442-12.09 12.09-12.09h132.96c6.645 0 12.09 5.442 12.09 12.09l-16.348 87.23c-18.732-9.39-39.849-14.707-62.22-14.707s-43.485 5.318-62.21 14.707l-16.36-87.23m78.56 326.36c-63.43 0-114.8-51.41-114.83-114.83.024-63.44 51.39-114.82 114.83-114.83 63.44-.011 114.84 51.39 114.84 114.82 0 63.32-51.39 114.83-114.84 114.84"/></g></svg>