<svg xmlns="http://www.w3.org/2000/svg" viewBox="0 0 800 600" enable-background="new 0 0 800 600"><g fill="#231f20"><circle cx="327.25" cy="160.56" r="18.19"/><circle cx="472.75" cy="160.56" r="18.19"/><path d="m454.18 363.86c18.898-15.997 36.754-31.11 36.754-49.998 0-27.695-21.758-50.23-48.5-50.23s-48.5 22.533-48.5 50.23c0 6.696 5.429 12.13 12.13 12.13s12.13-5.429 12.13-12.12c0-14.321 10.882-25.978 24.25-25.978s24.25 11.657 24.25 25.978c0 7.644-15.618 20.863-28.17 31.491-20.899 17.69-44.581 37.737-44.581 63.774 0 6.696 5.429 12.13 12.13 12.13h72.75c6.696 0 12.13-5.429 12.13-12.12s-5.429-12.12-12.13-12.12h-56.889c6.376-11.207 19.904-22.687 32.26-33.14"/><path d="m533.38 106h-266.75c-33.427 0-60.62 27.2-60.62 60.63v266.75c0 33.427 27.2 60.63 60.63 60.63h266.75c33.427 0 60.63-27.2 60.63-60.62v-266.75c0-33.427-27.2-60.62-60.62-60.62m-266.75 24.25h266.75c20.06 0 36.38 16.317 36.38 36.38v24.25h-339.5v-24.25c0-20.06 16.317-36.37 36.38-36.37m266.75 339.5h-266.75c-20.06 0-36.37-16.317-36.37-36.37v-218.25h339.5v218.25c0 20.06-16.317 36.38-36.37 36.38"/><path d="m345.44 421.25c-6.696 0-12.12-5.429-12.12-12.12v-104.1l-15.677 15.677c-4.737 4.737-12.409 4.737-17.15 0-4.736-4.73-4.736-12.409 0-17.14l36.38-36.38c3.464-3.469 8.68-4.511 13.214-2.629 4.529 1.877 7.484 6.3 7.484 11.202v133.38c0 6.696-5.429 12.13-12.12 12.13"/></g></svg>