<svg xmlns="http://www.w3.org/2000/svg" viewBox="0 0 800 600" enable-background="new 0 0 800 600"><g fill="#231f20"><path d="m534.61 112.72h-23.416-222.39-23.404c-6.464 0-11.705 5.241-11.705 11.705s5.241 11.705 11.705 11.705h11.699v35.12c0 .04.012.074.012.114.063 19.307 15.785 35 35.11 35h76.08v12.259c-65.53 5.939-117.05 61.15-117.05 128.2v105.35c0 19.312 15.803 35.12 35.12 35.12h187.28c19.312 0 35.12-15.803 35.12-35.12v-105.35c0-67.05-51.52-122.26-117.05-128.2v-12.259h76.08c19.369 0 35.13-15.751 35.13-35.12 0-.057-.018-.114-.018-.171v-34.944h11.711c6.464 0 11.705-5.241 11.705-11.705s-5.241-11.705-11.705-11.705m-29.26 234.1v105.34c0 6.435-5.27 11.705-11.705 11.705h-187.28c-6.435 0-11.705-5.27-11.705-11.705v-105.34c0-58.09 47.25-105.34 105.34-105.34s105.35 47.25 105.35 105.34m-5.853-175.49c-.046 6.418-5.27 11.62-11.705 11.62h-175.57c-6.458 0-11.705-5.247-11.705-11.705l-.006-.057v-35.06h198.99v35.12c-.001.029.005.058.005.086"/><path d="m318.06 346.82c0 45.18 36.755 81.935 81.935 81.935s81.935-36.755 81.935-81.935-36.756-81.935-81.935-81.935-81.935 36.755-81.935 81.935m140.46 0c0 32.27-26.26 58.52-58.52 58.52s-58.52-26.26-58.52-58.52 26.26-58.52 58.52-58.52 58.52 26.26 58.52 58.52"/><path d="m388.3 329.26v22.12c-3.566 3.212-5.852 7.818-5.852 12.997 0 9.699 7.87 17.557 17.569 17.557 9.693 0 17.546-7.859 17.546-17.557 0-5.178-2.286-9.791-5.852-13.01v-22.11c0-6.464-5.241-11.705-11.705-11.705s-11.706 5.241-11.706 11.705"/></g></svg>