<svg xmlns="http://www.w3.org/2000/svg" viewBox="0 0 43 32"><g><path d="m12.658 16.498c-2.398.001-4.339 1.943-4.34 4.34.001 2.397 1.942 4.34 4.34 4.34s4.34-1.947 4.34-4.341c0-2.397-1.943-4.34-4.34-4.34zm0 6.82c-1.37 0-2.48-1.11-2.48-2.48s1.11-2.48 2.48-2.48 2.481 1.11 2.48 2.48c.001 1.37-1.111 2.48-2.48 2.48"/><path d="m39.987 9.683c-.016-.001-.03-.005-.047-.005h-27.28c-6.162 0-11.163 4.998-11.161 11.162-.001 6.164 4.995 11.159 11.161 11.159 5.442 0 9.973-3.898 10.957-9.05l16.32-2.107c.001-.001.002-.001.004 0 .685 0 1.24-.555 1.24-1.24 0-.001 0-.002 0-.003v-8.674c0-.001 0-.002 0-.003 0-.668-.529-1.209-1.192-1.235zm-27.329 19.837c-4.794 0-8.677-3.887-8.68-8.68.004-4.796 3.886-8.679 8.68-8.68h7.44c.001 1.028.833 1.86 1.86 1.86s1.86-.832 1.86-1.86h14.881v6.358l-16.179 2.088c-.685 0-1.24.556-1.24 1.24-.5 4.314-4.168 7.672-8.622 7.674"/><path d="m21.338 5.226c-.685 0-1.24-.555-1.24-1.24v-2.745c0-.685.555-1.24 1.24-1.24s1.24.555 1.24 1.24v2.745c0 .685-.555 1.24-1.24 1.24"/><path d="m17.581 7.537c-.317 0-.635-.121-.877-.363l-1.941-1.941c-.484-.484-.484-1.269 0-1.754s1.269-.484 1.754 0l1.941 1.941c.484.484.484 1.269 0 1.754-.242.242-.559.363-.877.363"/><path d="m25.09 7.537c-.317 0-.635-.121-.877-.363-.484-.484-.484-1.269 0-1.754l1.941-1.941c.484-.484 1.269-.484 1.754 0s.484 1.269 0 1.754l-1.941 1.941c-.242.242-.56.363-.877.363"/></g></svg>