<svg xmlns="http://www.w3.org/2000/svg" viewBox="0 0 43 32"><g fill="#444"><path d="m21.336 15.5c-2.761 0-5 2.239-5 5-.001 2.762 2.237 4.999 5 4.999 2.761 0 5-2.238 5-4.999.001-2.762-2.239-5-5-5zm0 8c-1.657 0-2.999-1.343-3-3 .001-1.657 1.343-2.999 3-3s3 1.343 3 2.999c0 1.655-1.343 3-3 3z"/><path d="m28.494 11.503l1.342-8.502c0-1.65-1.35-3-3-3h-10.999c-1.649 0-3 1.35-3 3l1.343 8.502c-2.645 2.107-4.344 5.354-4.343 8.998-.001 6.353 5.146 11.498 11.5 11.498 6.35 0 11.502-5.146 11.5-11.498.001-3.645-1.696-6.892-4.342-8.999zm-13.658-8.502c0-.55.45-1 1-1h11c.55 0 1 .45 1 1l-1.352 7.216c-1.55-.777-3.297-1.217-5.147-1.217s-3.598.44-5.146 1.217l-1.353-7.216zm6.5 26.999c-5.248 0-9.498-4.253-9.5-9.5.002-5.249 4.252-9.499 9.5-9.5s9.501 4.251 9.501 9.499c0 5.239-4.252 9.5-9.501 9.501"/></g></svg>