<svg xmlns="http://www.w3.org/2000/svg" viewBox="0 0 43 32"><g fill="#444"><path d="m16.837 4.501c0 .828-.672 1.5-1.5 1.5s-1.5-.672-1.5-1.5c0-.828.672-1.5 1.5-1.5s1.5.672 1.5 1.5"/><path d="m28.836 4.501c0 .828-.672 1.5-1.5 1.5s-1.5-.672-1.5-1.5c0-.828.672-1.5 1.5-1.5s1.5.672 1.5 1.5"/><path d="m25.805 21.266c1.559-1.319 3.03-2.566 3.03-4.123 0-2.284-1.794-4.142-4-4.142s-4 1.858-4 4.142c0 .552.448 1 1 1s1-.448 1-1c0-1.181.897-2.142 2-2.142s2 .961 2 2.142c0 .63-1.288 1.721-2.323 2.597-1.724 1.459-3.677 3.112-3.677 5.259 0 .552.448 1 1 1h6c.552 0 1-.448 1-1s-.448-1-1-1h-4.692c.526-.924 1.641-1.871 2.66-2.733z"/><path d="m32.34.001h-21.999c-2.757 0-5 2.243-5 5v21.999c0 2.757 2.243 5 5 5h21.999c2.757 0 5-2.243 5-5v-21.999c0-2.757-2.243-5-5-5m-21.999 2h21.999c1.654 0 3 1.346 3 3v2h-27.998v-2c0-1.654 1.346-3 3-3m21.998 27.998h-21.999c-1.654 0-3-1.346-3-3v-17.999h27.998v17.999c0 1.654-1.346 3-3 3"/><path d="m16.837 25.999c-.552 0-1-.448-1-1v-8.585l-1.293 1.293c-.391.391-1.023.391-1.414 0s-.391-1.023 0-1.414l3-3c.286-.286.716-.372 1.09-.217s.617.52.617.924v10.999c0 .552-.448 1-1 1"/></g></svg>