<svg xmlns="http://www.w3.org/2000/svg" viewBox="0 0 43 32"><g fill="#444"><path d="m32.836.001h-22.999c-.552 0-1 .448-1 1s.448 1 1 1h.999v3c0 .003.001.006.001.01.005 1.649 1.348 2.99 2.999 2.99h6.5v1.047c-5.598.507-9.999 5.224-9.999 10.952v9c0 1.65 1.35 3 3 3h15.999c1.65 0 3-1.35 3-3v-9c0-5.728-4.402-10.445-9.999-10.952v-1.047h6.5c1.655 0 3-1.346 3-3 0-.005-.002-.01-.002-.015v-2.985h1c.552 0 1-.448 1-1s-.448-1-1-1m-2.5 19.999v9c0 .55-.45 1-1 1h-15.999c-.55 0-1-.45-1-1v-9c0-4.963 4.04-9 9-9s9 4.04 9 9m-.501-14.992c-.004.548-.45.993-1 .993h-14.999c-.552 0-1-.448-1-1v-.005-2.995h16.999v3c0 .002 0 .005 0 .007z"/><path d="m14.337 20c0 3.86 3.14 7 7 7s7-3.14 7-7-3.14-7-7-7-7 3.14-7 7m11.999 0c0 2.757-2.243 5-5 5s-5-2.243-5-5 2.243-5 5-5 5 2.243 5 5"/><path d="m20.337 18.5v1.89c-.305.274-.5.668-.5 1.11 0 .829.672 1.5 1.501 1.5s1.499-.671 1.499-1.5c0-.442-.195-.836-.5-1.111v-1.889c0-.552-.448-1-1-1s-1 .448-1 1"/></g></svg>